<svg xmlns="http://www.w3.org/2000/svg" xml:space="preserve" width="1000" height="1196" style="shape-rendering:geometricPrecision;text-rendering:geometricPrecision;image-rendering:optimizeQuality;fill-rule:evenodd;clip-rule:evenodd" viewBox="0 0 293.852 350.7"><path d="M28.833.016C21.603.165 14.475 3.121 9.24 8.17 3.794 13.339.433 20.67.056 28.215c-.107 3.3-.021 6.606-.049 9.909.003 94.08-.005 188.16.004 282.24.107 7.262 2.671 14.425 6.962 20.225 3.319 4.451 7.888 8.184 13.31 9.559 3.443.902 7.122.669 10.479-.486 78.186-23.932 156.376-47.851 234.559-71.791 6.585-2.085 13.09-4.86 18.519-9.246 4.159-3.35 7.52-7.856 8.993-13.067.879-2.941 1.075-6.034 1.007-9.092-.005-72.336.006-144.671-.006-217.008-.072-7.412-3.006-14.748-8.066-20.113C280.657 3.837 273.41.438 265.95.055c-3.264-.107-6.532-.02-9.798-.048C180.502.01 104.85.001 29.199.011q-.183.002-.366.005M193.593 178.9l-42.973-.001v-34.385h83.797q.51 2.801.764 7.64.255 4.841.382 9.297.128 4.459.128 7.005 0 17.32-6.241 31.71T211.875 225q-11.333 10.442-26.616 16.173-15.281 5.731-33.111 5.731-21.396 0-38.587-6.876-17.193-6.877-29.674-19.358-12.48-12.48-19.102-29.291-6.622-16.81-6.622-36.677t7.132-36.678q7.132-16.81 19.993-29.291 12.863-12.48 30.565-19.357 17.701-6.877 38.842-6.876 14.517 0 27.635 3.819 13.117 3.823 23.942 10.443 10.824 6.623 17.956 15.027l-26.743 28.019q-9.17-8.66-19.738-13.627-10.572-4.967-23.816-4.967-10.952 0-20.249 3.949a49 49 0 0 0-16.3 11.207q-7.006 7.258-10.826 17.064t-3.82 21.268q-.001 11.462 4.075 21.14 4.074 9.68 11.335 16.938 7.258 7.26 16.936 11.334 9.68 4.076 20.887 4.076 7.895 0 14.645-2.42 6.749-2.42 11.972-6.622 5.22-4.202 8.149-9.935a26.5 26.5 0 0 0 2.858-10.313" style="fill:#3b9702;fill-rule:nonzero"/></svg>